<svg xmlns="http://www.w3.org/2000/svg" x="0px" y="0px" width="100" height="100" viewBox="0 0 24 24">
<path d="M3.427,5.352C3.385,4.129,4.314,3,5.569,3h12.863c1.255,0,2.184,1.129,2.142,2.352c-0.04,1.176,0.012,2.698,0.385,3.94	C21.334,10.538,21.966,10.899,23,11v2c-1.034,0.101-1.666,0.462-2.04,1.707c-0.373,1.242-0.425,2.765-0.385,3.94	C20.616,19.871,19.687,21,18.432,21H5.569c-1.255,0-2.184-1.129-2.142-2.352c0.04-1.176-0.012-2.698-0.385-3.94	C2.667,13.462,2.034,13.101,1,13v-2c1.034-0.101,1.667-0.462,2.042-1.707C3.415,8.051,3.467,6.528,3.427,5.352z"></path><path fill="#fff" d="M8,17V7.033h4.135c0.907,0,1.684,0.245,2.243,0.708c0.579,0.479,0.885,1.149,0.885,1.939	c0,0.804-0.438,1.559-1.087,1.993c0.958,0.41,1.557,1.285,1.557,2.368c0,0.905-0.341,1.661-0.984,2.184	C14.121,16.732,13.225,17,12.154,17H8z M11.85,15.267c1.725,0,1.725-0.92,1.725-1.223c0-0.517-0.188-1.204-1.811-1.204h-1.639v2.427	H11.85z M11.466,11.093c0.762,0,1.671-0.194,1.671-1.12c0-0.679-0.457-1.022-1.359-1.022h-1.652v2.143H11.466z"></path>
</svg>